<?xml version="1.0" standalone="no"?>
<!DOCTYPE svg PUBLIC "-//W3C//DTD SVG 20010904//EN"
 "http://www.w3.org/TR/2001/REC-SVG-20010904/DTD/svg10.dtd">
<svg version="1.0" xmlns="http://www.w3.org/2000/svg"
 width="1380.000000pt" height="1380.000000pt" viewBox="0 0 1380.000000 1380.000000"
 preserveAspectRatio="xMidYMid meet">
<metadata>
Created by potrace 1.14, written by Peter Selinger 2001-2017
</metadata>
<g transform="translate(0.000000,1380.000000) scale(0.100000,-0.100000)"
fill="#000000" stroke="none">
<path d="M7139 13596 c-2 -2 -58 -6 -124 -10 -66 -4 -133 -8 -150 -10 -28 -4
-56 -7 -200 -22 -27 -2 -61 -7 -75 -9 -14 -3 -45 -7 -70 -10 -25 -3 -83 -12
-130 -21 -47 -9 -98 -18 -114 -20 -15 -2 -35 -6 -45 -8 -9 -3 -32 -8 -51 -11
-52 -9 -204 -43 -295 -67 -44 -11 -84 -21 -90 -22 -60 -14 -329 -97 -450 -139
-618 -216 -1194 -521 -1715 -911 -115 -86 -341 -266 -376 -300 -6 -6 -46 -42
-90 -81 -43 -38 -151 -142 -240 -230 -425 -424 -767 -877 -1077 -1425 -58
-103 -229 -454 -282 -580 -31 -74 -63 -148 -70 -165 -25 -60 -95 -253 -134
-375 -158 -488 -259 -1008 -298 -1540 -16 -207 -8 -923 11 -1017 3 -12 7 -57
11 -100 3 -43 8 -91 10 -108 2 -16 9 -64 15 -105 5 -41 12 -87 15 -103 5 -27
20 -117 29 -172 3 -16 15 -75 26 -130 12 -55 24 -111 26 -125 2 -14 25 -102
50 -195 25 -94 48 -181 50 -195 3 -14 9 -34 14 -45 8 -19 75 -227 82 -254 2
-7 -10 -20 -27 -29 -276 -155 -444 -280 -634 -472 -180 -182 -333 -392 -452
-617 -22 -43 -54 -109 -70 -148 -17 -38 -34 -79 -39 -90 -49 -110 -125 -389
-146 -530 -3 -22 -7 -51 -10 -65 -19 -115 -25 -420 -11 -584 73 -849 593
-1623 1362 -2026 88 -46 269 -127 305 -135 8 -2 40 -13 70 -24 55 -20 152 -48
200 -57 14 -3 39 -9 55 -14 17 -5 48 -12 70 -15 135 -21 167 -26 235 -33 147
-14 482 -7 600 12 14 3 41 7 60 10 37 6 120 22 158 31 12 3 30 7 40 9 243 55
547 187 782 341 275 180 549 447 715 698 21 31 41 57 45 57 4 0 49 -20 101
-44 107 -50 430 -179 564 -224 180 -62 530 -161 655 -186 209 -42 332 -66 364
-70 21 -4 48 -8 60 -11 12 -2 40 -7 64 -10 84 -10 128 -16 157 -20 17 -3 64
-7 105 -11 41 -3 81 -7 87 -9 79 -26 1014 -26 1175 0 12 2 50 6 83 10 121 13
151 16 175 20 14 2 48 7 75 10 28 3 61 8 75 11 14 2 36 6 50 9 13 3 40 7 60
10 20 3 47 8 60 10 14 3 59 12 100 20 103 20 269 59 365 85 44 12 89 24 100
27 212 55 642 209 862 309 99 45 395 192 468 233 39 21 93 51 120 66 247 136
642 411 910 635 453 377 895 865 1198 1320 31 47 61 90 67 97 5 7 10 17 10 23
0 5 5 10 10 10 6 0 10 7 10 15 0 8 5 15 10 15 6 0 10 4 10 9 0 6 13 29 29 53
16 24 38 59 49 78 11 19 43 76 72 125 138 237 288 552 405 850 52 133 168 469
180 524 2 9 18 66 34 126 41 145 92 368 116 508 12 65 15 83 19 102 2 11 7 40
10 65 3 25 10 70 15 100 6 31 10 423 10 900 0 908 1 873 -54 1165 -9 50 -19
101 -21 115 -44 258 -241 911 -339 1125 -8 17 -23 53 -34 80 -65 167 -218 473
-380 759 -131 230 -392 601 -600 850 -214 256 -512 560 -731 746 -36 30 -67
57 -70 60 -3 3 -50 42 -105 86 -221 178 -489 366 -696 489 -271 161 -506 282
-783 405 -303 135 -816 301 -1141 369 -84 18 -302 60 -345 66 -25 4 -54 9 -65
11 -11 2 -40 7 -65 10 -25 3 -56 7 -70 9 -14 2 -52 7 -85 10 -33 3 -67 8 -75
10 -8 2 -58 7 -110 11 -52 4 -108 8 -125 11 -37 5 -761 13 -766 9z"/>
<path d="M1725 217 c32 -19 1584 -22 1645 -3 40 12 -57 14 -810 15 -677 0
-851 -2 -835 -12z"/>
</g>
</svg>
